<svg xmlns="http://www.w3.org/2000/svg" width="18" height="18" viewBox="0 0 18 18"><path d="M63,373a9,9,0,1,1,9-9A9,9,0,0,1,63,373Zm0-16.875a7.872,7.872,0,0,0-5.063,13.9v.159h.2a7.846,7.846,0,0,0,9.722,0h.2v-.159A7.872,7.872,0,0,0,63,356.124ZM68.062,364a5.063,5.063,0,1,0-10.125,0H56.812a6.188,6.188,0,1,1,12.375,0Zm-10.125,3.536c-.038-.055-.083-.105-.12-.161h.12Zm4.907-1.27,1.322-5.219a.546.546,0,0,1,.672-.411.585.585,0,0,1,.388.711l-1.31,5.176a1.693,1.693,0,1,1-1.071-.257Zm-.407,2.234h1.125v-1.125H62.438Zm5.625-.964v-.161h.12C68.145,367.43,68.1,367.481,68.062,367.536Z" transform="translate(-54 -354.999)" fill="#24b1e3"/></svg>