<?xml version="1.0" encoding="utf-8"?>
<!-- Generator: Adobe Illustrator 25.2.0, SVG Export Plug-In . SVG Version: 6.00 Build 0)  -->
<svg version="1.1" id="Layer_1" xmlns="http://www.w3.org/2000/svg" xmlns:xlink="http://www.w3.org/1999/xlink" x="0px" y="0px"
	 viewBox="0 0 254.8 86.5" style="enable-background:new 0 0 254.8 86.5;" xml:space="preserve">
<style type="text/css">
	.st0{fill:#103E67;}
	.st1{fill:#ffffff;}
	.st2{fill:#24B1E3;}
</style>
<g>
	<path class="st0" d="M224.7,86.5H30.1C13.5,86.5,0,73,0,56.4V30.1C0,13.5,13.5,0,30.1,0h194.6c16.6,0,30.1,13.5,30.1,30.1v26.3
		C254.8,73,241.4,86.5,224.7,86.5z"/>
	<g>
		<g>
			<path class="st1" d="M116.3,42.5h5.2v10.1c-1.3,1-2.9,1.8-4.7,2.3c-1.8,0.5-3.6,0.8-5.4,0.8c-2.6,0-4.9-0.5-7-1.6
				c-2.1-1.1-3.7-2.6-4.8-4.6c-1.2-2-1.8-4.2-1.8-6.6c0-2.5,0.6-4.7,1.8-6.6c1.2-2,2.8-3.5,4.9-4.6c2.1-1.1,4.4-1.6,7-1.6
				c2.2,0,4.1,0.4,5.9,1.1s3.3,1.8,4.5,3.2l-3.7,3.4c-1.8-1.9-3.9-2.8-6.4-2.8c-1.6,0-3,0.3-4.2,1c-1.2,0.7-2.2,1.6-2.9,2.8
				c-0.7,1.2-1,2.6-1,4.2c0,1.5,0.3,2.9,1,4.1c0.7,1.2,1.6,2.1,2.9,2.8c1.2,0.7,2.6,1,4.2,1c1.7,0,3.1-0.4,4.5-1.1V42.5z"/>
			<path class="st1" d="M131.9,54c-2.1-1.1-3.7-2.6-4.9-4.6c-1.2-2-1.8-4.1-1.8-6.6c0-2.4,0.6-4.6,1.8-6.6c1.2-2,2.8-3.5,4.9-4.6
				c2.1-1.1,4.4-1.7,7-1.7c2.6,0,4.9,0.6,7,1.7c2.1,1.1,3.7,2.6,4.9,4.6c1.2,2,1.8,4.1,1.8,6.6c0,2.4-0.6,4.6-1.8,6.6
				c-1.2,2-2.8,3.5-4.9,4.6c-2.1,1.1-4.4,1.7-7,1.7C136.3,55.7,134,55.1,131.9,54z M142.8,49.8c1.2-0.7,2.1-1.6,2.8-2.8
				c0.7-1.2,1-2.6,1-4.1c0-1.5-0.3-2.9-1-4.1c-0.7-1.2-1.6-2.1-2.8-2.8c-1.2-0.7-2.5-1-4-1c-1.5,0-2.8,0.3-4,1
				c-1.2,0.7-2.1,1.6-2.8,2.8c-0.7,1.2-1,2.6-1,4.1c0,1.5,0.3,2.9,1,4.1c0.7,1.2,1.6,2.1,2.8,2.8c1.2,0.7,2.5,1,4,1
				C140.3,50.8,141.7,50.5,142.8,49.8z"/>
			<path class="st1" d="M173.4,49.1h-13.2l-2.7,6.2h-3.7L165,30.5h3.5l11.3,24.8h-3.7L173.4,49.1z M172.1,46.2l-5.4-12.2l-5.4,12.2
				H172.1z"/>
			<path class="st1" d="M197.9,37.5c1.4,0.8,2.6,1.9,3.4,3.4c0.8,1.4,1.2,3.1,1.2,5c0,1.9-0.4,3.6-1.2,5c-0.8,1.5-1.9,2.6-3.4,3.4
				c-1.4,0.8-3.1,1.2-4.9,1.2c-1.3,0-2.6-0.3-3.7-0.8c-1.1-0.5-2.1-1.3-2.9-2.3v9.7H183V36.5h3.3v3c0.8-1,1.7-1.8,2.9-2.4
				c1.2-0.5,2.4-0.8,3.8-0.8C194.8,36.3,196.4,36.7,197.9,37.5z M195.9,51.7c1-0.6,1.7-1.3,2.3-2.3c0.6-1,0.8-2.2,0.8-3.5
				c0-1.3-0.3-2.5-0.8-3.5c-0.6-1-1.3-1.8-2.3-2.3c-1-0.5-2-0.8-3.2-0.8c-1.2,0-2.3,0.3-3.2,0.8c-1,0.6-1.7,1.3-2.3,2.3
				c-0.6,1-0.8,2.1-0.8,3.4c0,1.3,0.3,2.5,0.8,3.5c0.5,1,1.3,1.8,2.3,2.3c1,0.6,2,0.8,3.2,0.8C193.9,52.5,195,52.2,195.9,51.7z"/>
			<path class="st1" d="M222.1,37.5c1.4,0.8,2.6,1.9,3.4,3.4c0.8,1.4,1.2,3.1,1.2,5c0,1.9-0.4,3.6-1.2,5c-0.8,1.5-1.9,2.6-3.4,3.4
				c-1.4,0.8-3.1,1.2-4.9,1.2c-1.3,0-2.6-0.3-3.7-0.8c-1.1-0.5-2.1-1.3-2.9-2.3v9.7h-3.4V36.5h3.3v3c0.8-1,1.7-1.8,2.9-2.4
				c1.2-0.5,2.4-0.8,3.8-0.8C219,36.3,220.6,36.7,222.1,37.5z M220.1,51.7c1-0.6,1.7-1.3,2.3-2.3c0.6-1,0.8-2.2,0.8-3.5
				c0-1.3-0.3-2.5-0.8-3.5c-0.6-1-1.3-1.8-2.3-2.3c-1-0.5-2-0.8-3.2-0.8c-1.2,0-2.3,0.3-3.2,0.8c-1,0.6-1.7,1.3-2.3,2.3
				c-0.6,1-0.8,2.1-0.8,3.4c0,1.3,0.3,2.5,0.8,3.5c0.5,1,1.3,1.8,2.3,2.3c1,0.6,2,0.8,3.2,0.8C218.1,52.5,219.2,52.2,220.1,51.7z"/>
		</g>
		<g>
			<path class="st1" d="M53.5,25.2c-8.4,0-15.4,5.9-17.2,13.7h12.2l-0.1-0.1c-1.4-1.4-1.4-3.7,0-5.1c1.4-1.4,3.7-1.4,5.1,0l1.3,1.3
				c0,0,0,0,0.1,0.1l0.1,0.1c0,0,0,0,0.1,0.1l0,0c0,0,2.4,2.4,2.4,2.4l2.6,2.6c1.4,1.4,1.4,3.7,0,5.1l-2.6,2.6l-4,4
				c-1.4,1.4-3.7,1.4-5.1,0c-1.4-1.4-1.4-3.7,0-5.1l0.1-0.1H36.3c1.8,7.8,8.8,13.7,17.2,13.7c9.7,0,17.6-7.9,17.6-17.6
				C71.1,33.1,63.3,25.2,53.5,25.2z"/>
			<g>
				<path class="st2" d="M53.6,73.5c-16.9,0-30.6-13.7-30.6-30.6s13.7-30.6,30.6-30.6S84.2,26,84.2,42.9S70.4,73.5,53.6,73.5z
					 M53.6,16.5c-14.5,0-26.4,11.8-26.4,26.4S39,69.2,53.6,69.2s26.4-11.8,26.4-26.4S68.1,16.5,53.6,16.5z"/>
			</g>
		</g>
	</g>
</g>
</svg>
