<svg xmlns="http://www.w3.org/2000/svg" width="18.184" height="18.178" viewBox="0 0 18.184 18.178"><g transform="translate(-0.1 -0.1)"><path d="M18.278,17.568a3.027,3.027,0,0,1-.095-.616,9,9,0,0,0-5.835-7.2l-.166-.066c.052-.043.085-.071.123-.1a5.067,5.067,0,0,0,2.013-5.31A5.066,5.066,0,0,0,10.388.242C10.16.181,9.923.147,9.691.1H8.663a4.319,4.319,0,0,1-.644.133,5.243,5.243,0,0,0-4.054,4.59,5.153,5.153,0,0,0,2.117,4.76c.038.028.071.057.118.1a9.131,9.131,0,0,0-1,.426,9.033,9.033,0,0,0-4.983,6.7,4.559,4.559,0,0,1-.114.72c0,.218,0,.436,0,.658,0,.076.014.09.09.09.445,0,.886,0,1.331,0A7.551,7.551,0,0,1,5.826,11.4a6.962,6.962,0,0,1,3.95-.758,7.529,7.529,0,0,1,6.442,4.575,7.159,7.159,0,0,1,.644,3.06c.445,0,.886,0,1.331,0,.076,0,.095-.014.09-.09C18.274,17.98,18.278,17.772,18.278,17.568ZM9.185,9.185a3.834,3.834,0,1,1,3.837-3.832A3.841,3.841,0,0,1,9.185,9.185Z" transform="translate(0 0)" fill="#24b1e3"/><path d="M86.257,272.9A5.264,5.264,0,0,0,81,278.157h1.421a3.867,3.867,0,0,1,.592-2.046c.062-.095.09-.109.175-.024.483.493.976.98,1.464,1.464a.19.19,0,0,1,.057.218,1.056,1.056,0,0,0-.047.384h3.2a1.253,1.253,0,0,0-.033-.3c-.062-.175.009-.275.128-.393q.689-.675,1.364-1.364c.095-.095.133-.085.2.024a3.891,3.891,0,0,1,.583,2.027H91.52A5.269,5.269,0,0,0,86.257,272.9Zm2.065,2.188q-.739.732-1.468,1.468a.176.176,0,0,1-.2.057,1.431,1.431,0,0,0-.786,0,.183.183,0,0,1-.2-.047q-.739-.746-1.482-1.483c-.081-.081-.062-.109.024-.161a3.819,3.819,0,0,1,4.092,0C88.4,274.975,88.408,275.008,88.323,275.088Z" transform="translate(-77.068 -259.879)" fill="#24b1e3"/></g></svg>