<svg width="12" height="14" viewBox="0 0 12 14" fill="none" xmlns="http://www.w3.org/2000/svg">
<path d="M7.16669 0.333252H4.83335C4.46439 0.333263 4.10838 0.469257 3.83338 0.715233C3.55838 0.961209 3.38368 1.29991 3.34269 1.66659H2.16669C1.76886 1.66659 1.38733 1.82462 1.10603 2.10593C0.824722 2.38723 0.666687 2.76876 0.666687 3.16659V12.1666C0.666687 12.5644 0.824722 12.9459 1.10603 13.2272C1.38733 13.5085 1.76886 13.6666 2.16669 13.6666H9.83335C10.0303 13.6666 10.2254 13.6278 10.4074 13.5524C10.5894 13.477 10.7547 13.3665 10.894 13.2272C11.0333 13.088 11.1438 12.9226 11.2192 12.7406C11.2946 12.5586 11.3334 12.3636 11.3334 12.1666V3.16659C11.3334 2.9696 11.2946 2.77455 11.2192 2.59256C11.1438 2.41057 11.0333 2.24521 10.894 2.10593C10.7547 1.96664 10.5894 1.85615 10.4074 1.78077C10.2254 1.70538 10.0303 1.66659 9.83335 1.66659H8.65735C8.61636 1.29991 8.44166 0.961209 8.16666 0.715233C7.89166 0.469257 7.53564 0.333263 7.16669 0.333252ZM4.83335 1.33325H7.16669C7.29929 1.33325 7.42647 1.38593 7.52024 1.4797C7.61401 1.57347 7.66669 1.70064 7.66669 1.83325C7.66669 1.96586 7.61401 2.09304 7.52024 2.18681C7.42647 2.28057 7.29929 2.33325 7.16669 2.33325H4.83335C4.70074 2.33325 4.57357 2.28057 4.4798 2.18681C4.38603 2.09304 4.33335 1.96586 4.33335 1.83325C4.33335 1.70064 4.38603 1.57347 4.4798 1.4797C4.57357 1.38593 4.70074 1.33325 4.83335 1.33325ZM9.35335 6.35325L5.68669 10.0199C5.59294 10.1136 5.46585 10.1661 5.33335 10.1661C5.20085 10.1661 5.07377 10.1136 4.98002 10.0199L3.31335 8.35325C3.26423 8.30748 3.22483 8.25228 3.1975 8.19094C3.17017 8.12961 3.15548 8.0634 3.15429 7.99627C3.15311 7.92913 3.16546 7.86244 3.1906 7.80019C3.21575 7.73793 3.25318 7.68137 3.30066 7.63389C3.34814 7.58641 3.4047 7.54898 3.46695 7.52384C3.52921 7.49869 3.5959 7.48634 3.66303 7.48752C3.73017 7.48871 3.79638 7.5034 3.85771 7.53073C3.91904 7.55806 3.97425 7.59746 4.02002 7.64658L5.33335 8.95992L8.64669 5.64658C8.69246 5.59746 8.74766 5.55806 8.80899 5.53073C8.87033 5.5034 8.93654 5.48871 9.00367 5.48752C9.07081 5.48634 9.13749 5.49869 9.19975 5.52384C9.26201 5.54898 9.31857 5.58641 9.36604 5.63389C9.41352 5.68137 9.45095 5.73793 9.4761 5.80019C9.50125 5.86245 9.5136 5.92913 9.51241 5.99627C9.51123 6.0634 9.49653 6.12961 9.46921 6.19094C9.44188 6.25228 9.40248 6.30748 9.35335 6.35325Z" fill="#212529"/>
</svg>
