<svg xmlns="http://www.w3.org/2000/svg" width="18.184" height="17.962" viewBox="0 0 18.184 17.962"><g transform="translate(0 0.005)"><path d="M18.147,8.34A8.93,8.93,0,0,0,17.58,5.8a7.434,7.434,0,0,0-.492-1.054c-.317.315-.616.623-.929.918a.217.217,0,0,0-.056.3,7.323,7.323,0,0,1,.613,3.753,7.5,7.5,0,0,1-1.443,3.758c-.128.175-.273.34-.423.525a5.942,5.942,0,0,0-3.372-4.067,3.492,3.492,0,0,0,.089-5.061A3.548,3.548,0,0,0,6.852,4.65,3.365,3.365,0,0,0,5.591,6.933a3.435,3.435,0,0,0,1.116,2.99,5.944,5.944,0,0,0-3.382,4.056c-.022-.017-.032-.022-.04-.03A7.406,7.406,0,0,1,1.673,7.1a7.3,7.3,0,0,1,2.96-4.261A7.394,7.394,0,0,1,10.167,1.5a.885.885,0,0,0,.958-.313,8.232,8.232,0,0,1,.736-.739A8.995,8.995,0,0,0,2.722,2.581,8.793,8.793,0,0,0,.064,7.94.614.614,0,0,1,0,8.253V9.729a2.246,2.246,0,0,1,.094.557,8.906,8.906,0,0,0,5.887,7.162,8.169,8.169,0,0,0,1.976.468c.035.005.088-.015.1.04h1.953c.258-.044.515-.086.771-.133a8.9,8.9,0,0,0,5.071-2.83,8.8,8.8,0,0,0,2.21-4.621c.035-.226.051-.453.077-.68.005-.037-.02-.086.037-.1V9.165a.17.17,0,0,1-.039-.1c0-.059.015-.121.01-.18,0-.032-.015-.069-.005-.1a.075.075,0,0,1,.035-.039V8.426C18.133,8.415,18.149,8.372,18.147,8.34ZM8.98,5.265a2.085,2.085,0,1,1-2,2.121A2.1,2.1,0,0,1,8.98,5.265Zm4.465,9.975A7.708,7.708,0,0,1,10.266,16.5a7.527,7.527,0,0,1-1.184.091,7.7,7.7,0,0,1-4.374-1.364.192.192,0,0,1-.093-.2,4.362,4.362,0,0,1,2.109-3.508,4.263,4.263,0,0,1,2.791-.652,4.467,4.467,0,0,1,4.044,4.133A.234.234,0,0,1,13.445,15.24Z" fill="#103e67"/><path d="M689.371,43.926c-.253-.246-.508-.49-.751-.747-.1-.1-.148-.091-.242,0-.9.9-1.8,1.791-2.705,2.689-.091.091-.135.1-.232,0-.517-.524-1.044-1.037-1.564-1.557-.074-.076-.115-.082-.192,0-.258.266-.52.529-.79.783-.1.091-.108.141-.005.242q1.275,1.247,2.534,2.508c.1.1.15.109.256,0q1.907-1.9,3.823-3.791v-.035C689.435,44.027,689.409,43.965,689.371,43.926Z" transform="translate(-671.322 -42.385)" fill="#103e67"/><path d="M1077.676,528.08a.166.166,0,0,0,.039.1V527.9a.172.172,0,0,0-.029,0C1077.691,527.959,1077.672,528.021,1077.676,528.08Z" transform="translate(-1059.532 -519.017)" fill="#103e67"/><path d="M1077.686,527.9h0c.005.059-.013.121-.01.18C1077.673,528.021,1077.691,527.959,1077.686,527.9Z" transform="translate(-1059.532 -519.017)" fill="#103e67"/><path d="M1077.722,519.639c-.01.032.008.067.005.1h0l.029,0V519.6A.079.079,0,0,0,1077.722,519.639Z" transform="translate(-1059.575 -510.857)" fill="#103e67"/><path d="M1077.815,522c0-.032-.015-.069,0-.1-.01.032.007.069,0,.1Z" transform="translate(-1059.662 -513.118)" fill="#103e67"/></g></svg>