<?xml version="1.0" encoding="utf-8"?>
<!-- Generator: Adobe Illustrator 25.2.0, SVG Export Plug-In . SVG Version: 6.00 Build 0)  -->
<svg version="1.1" id="Layer_1" xmlns="http://www.w3.org/2000/svg" xmlns:xlink="http://www.w3.org/1999/xlink" x="0px" y="0px"
	 viewBox="0 0 392.9 118.2" style="enable-background:new 0 0 392.9 118.2;" xml:space="preserve">
<style type="text/css">
	.st0{fill:#103E67;}
	.st1{fill:#24B1E3;}
</style>
<g>
	<g>
		<path class="st0" d="M180,58.3h10.1v19.4c-2.6,2-5.6,3.5-9,4.5c-3.4,1-6.9,1.6-10.3,1.6c-5,0-9.4-1.1-13.4-3.2
			c-4-2.1-7.1-5.1-9.3-8.8c-2.3-3.8-3.4-8-3.4-12.8c0-4.7,1.1-9,3.4-12.8c2.3-3.8,5.4-6.7,9.4-8.8c4-2.1,8.5-3.2,13.5-3.2
			c4.2,0,8,0.7,11.4,2.1s6.3,3.5,8.6,6.2l-7.1,6.6c-3.4-3.6-7.5-5.4-12.4-5.4c-3.1,0-5.8,0.6-8.1,1.9c-2.4,1.3-4.2,3.1-5.5,5.4
			c-1.3,2.3-2,5-2,8c0,3,0.7,5.6,2,7.9c1.3,2.3,3.2,4.1,5.5,5.4c2.3,1.3,5,1.9,8,1.9c3.2,0,6.1-0.7,8.6-2.1V58.3z"/>
		<path class="st0" d="M210.1,80.6c-4-2.1-7.1-5.1-9.4-8.9c-2.3-3.8-3.4-8-3.4-12.7c0-4.7,1.1-8.9,3.4-12.7c2.3-3.8,5.4-6.7,9.4-8.9
			c4-2.1,8.5-3.2,13.4-3.2c5,0,9.4,1.1,13.4,3.2c4,2.1,7.1,5.1,9.4,8.9c2.3,3.8,3.4,8,3.4,12.7c0,4.7-1.1,8.9-3.4,12.7
			c-2.3,3.8-5.4,6.7-9.4,8.9c-4,2.1-8.4,3.2-13.4,3.2C218.6,83.9,214.1,82.8,210.1,80.6z M231.2,72.5c2.3-1.3,4.1-3.1,5.4-5.4
			c1.3-2.3,1.9-5,1.9-7.9c0-3-0.7-5.6-1.9-7.9c-1.3-2.3-3.1-4.1-5.4-5.4c-2.3-1.3-4.8-1.9-7.7-1.9c-2.8,0-5.4,0.6-7.7,1.9
			c-2.3,1.3-4.1,3.1-5.4,5.4c-1.3,2.3-1.9,5-1.9,7.9c0,3,0.6,5.6,1.9,7.9c1.3,2.3,3.1,4.1,5.4,5.4c2.3,1.3,4.8,1.9,7.7,1.9
			C226.4,74.4,229,73.8,231.2,72.5z"/>
		<path class="st0" d="M290.1,71.1h-25.4l-5.3,12h-7l21.7-47.9h6.8L302.6,83h-7.2L290.1,71.1z M287.7,65.6l-10.3-23.5l-10.3,23.5
			H287.7z"/>
		<path class="st0" d="M337.4,48.8c2.8,1.6,5,3.7,6.5,6.5c1.6,2.8,2.4,6,2.4,9.6c0,3.6-0.8,6.9-2.4,9.7c-1.6,2.8-3.8,5-6.5,6.5
			c-2.8,1.6-5.9,2.3-9.4,2.3c-2.6,0-5-0.5-7.1-1.5c-2.2-1-4-2.5-5.5-4.4v18.7h-6.6V46.8h6.3v5.7c1.5-2,3.3-3.5,5.5-4.5
			c2.2-1,4.7-1.5,7.4-1.5C331.5,46.4,334.6,47.2,337.4,48.8z M333.7,76.1c1.8-1.1,3.3-2.6,4.4-4.5c1.1-1.9,1.6-4.2,1.6-6.7
			c0-2.5-0.5-4.7-1.6-6.7c-1.1-1.9-2.5-3.4-4.4-4.5c-1.8-1-3.9-1.6-6.3-1.6c-2.3,0-4.3,0.5-6.2,1.6c-1.8,1.1-3.3,2.6-4.4,4.5
			c-1.1,1.9-1.6,4.1-1.6,6.6c0,2.5,0.5,4.7,1.6,6.7c1,1.9,2.5,3.4,4.4,4.5c1.9,1.1,3.9,1.6,6.2,1.6
			C329.7,77.7,331.8,77.2,333.7,76.1z"/>
		<path class="st0" d="M384,48.8c2.8,1.6,5,3.7,6.5,6.5c1.6,2.8,2.4,6,2.4,9.6c0,3.6-0.8,6.9-2.4,9.7c-1.6,2.8-3.8,5-6.5,6.5
			c-2.8,1.6-5.9,2.3-9.4,2.3c-2.6,0-5-0.5-7.1-1.5c-2.2-1-4-2.5-5.5-4.4v18.7h-6.6V46.8h6.3v5.7c1.5-2,3.3-3.5,5.5-4.5
			c2.2-1,4.7-1.5,7.4-1.5C378.1,46.4,381.3,47.2,384,48.8z M380.3,76.1c1.8-1.1,3.3-2.6,4.4-4.5c1.1-1.9,1.6-4.2,1.6-6.7
			c0-2.5-0.5-4.7-1.6-6.7c-1.1-1.9-2.5-3.4-4.4-4.5c-1.8-1-3.9-1.6-6.3-1.6c-2.3,0-4.3,0.5-6.2,1.6c-1.8,1.1-3.3,2.6-4.4,4.5
			c-1.1,1.9-1.6,4.1-1.6,6.6c0,2.5,0.5,4.7,1.6,6.7c1,1.9,2.5,3.4,4.4,4.5c1.9,1.1,3.9,1.6,6.2,1.6
			C376.4,77.7,378.5,77.2,380.3,76.1z"/>
	</g>
	<g>
		<path class="st0" d="M59,25c-16.2,0-29.7,11.3-33.2,26.5h23.5l-0.2-0.2c-2.7-2.7-2.7-7.1,0-9.9c2.7-2.7,7.1-2.7,9.9,0l2.6,2.6
			c0,0,0.1,0.1,0.1,0.1l0.2,0.2c0,0,0.1,0.1,0.1,0.1l0.1,0.1c0,0,4.6,4.6,4.6,4.6l4.9,4.9c2.7,2.7,2.7,7.1,0,9.9l-4.9,4.9l-7.7,7.7
			c-2.7,2.7-7.1,2.7-9.9,0c-2.7-2.7-2.7-7.1,0-9.9l0.2-0.2H25.9C29.3,81.7,42.8,93,59,93c18.8,0,34-15.2,34-34
			C93,40.2,77.8,25,59,25z"/>
		<g>
			<path class="st1" d="M59.1,118.2C26.5,118.2,0,91.7,0,59.1S26.5,0,59.1,0s59.1,26.5,59.1,59.1S91.7,118.2,59.1,118.2z M59.1,8.2
				c-28,0-50.8,22.8-50.8,50.8s22.8,50.8,50.8,50.8s50.8-22.8,50.8-50.8S87.1,8.2,59.1,8.2z"/>
		</g>
	</g>
</g>
</svg>
