<svg xmlns="http://www.w3.org/2000/svg" width="18.184" height="18.189" viewBox="0 0 18.184 18.189"><g transform="translate(-0.1)"><path d="M103.746,293.858c-.715,0-1.431,0-2.146,0h4.274C105.168,293.853,104.457,293.858,103.746,293.858Z" transform="translate(-96.691 -279.933)" fill="#24b1e3"/><path d="M114.8,248.858h2.113C116.2,248.853,115.5,248.858,114.8,248.858Z" transform="translate(-107.741 -237.065)" fill="#24b1e3"/><path d="M.157,16.549a2.121,2.121,0,0,0,2.061,1.635q4.84.007,9.679,0a2.116,2.116,0,0,0,2.123-2.123c.009-1,0-2.014,0-3.018,0-.166.047-.19.194-.185.805.009,1.611,0,2.416,0a1.6,1.6,0,0,0,1.6-1.2,1.777,1.777,0,0,0,.057-.474v-5.2a.547.547,0,0,0-.611-.616c-.45,0-.9,0-1.35,0-.133,0-.175-.024-.175-.171,0-1.18.009-2.355,0-3.534a1.577,1.577,0,0,0-.914-1.5A3.422,3.422,0,0,0,14.8,0Q9.152,0,3.507,0C3.5.052,3.445.052,3.412.062A1.64,1.64,0,0,0,2.227,1.71q.014,6.538,0,13.076c0,.156-.028.208-.194.2-.407-.014-.815.009-1.222-.009a.67.67,0,0,0-.715.393v.995C.162,16.417.138,16.492.157,16.549ZM16.341,6.425c.246.014.5,0,.744,0,.09,0,.133.009.133.118,0,1.568,0,3.132,0,4.7a.531.531,0,0,1-.535.545.525.525,0,0,1-.526-.55V8.912c0-.578,0-1.151,0-1.729,0-.194,0-.384,0-.578C16.142,6.448,16.194,6.42,16.341,6.425ZM14.02,7.566V1.71a.841.841,0,0,1,.024-.265.531.531,0,0,1,1.038.1c0,.066,0,.128,0,.194v9.334a1.808,1.808,0,0,0,.066.6c.033.1-.014.114-.1.114-.289,0-.578-.009-.867,0-.137,0-.161-.033-.161-.166C14.02,10.276,14.02,8.921,14.02,7.566ZM3.293,1.734c0-.479.19-.668.663-.668h9.082a6,6,0,0,0-.081,1.563q-.007,6.659,0,13.313a1.074,1.074,0,0,1-.815,1.137,1.062,1.062,0,0,1-1.312-.99c-.009-.166,0-.332,0-.5a.544.544,0,0,0-.616-.606q-3.362,0-6.728,0c-.156,0-.19-.038-.19-.19Q3.3,8.27,3.293,1.734Zm-2,14.318q4.172.007,8.343,0c.057,0,.128-.028.133.085a2.194,2.194,0,0,0,.28.981H2.294A1.073,1.073,0,0,1,1.171,16.2C1.157,16.094,1.161,16.052,1.289,16.052Z" fill="#24b1e3"/><path d="M338.8,153.429c0-.578,0-1.151,0-1.729,0,.578,0,1.151,0,1.729v0Z" transform="translate(-322.653 -144.513)" fill="#24b1e3"/><path d="M113.549,53.316c1.421,0,2.838,0,4.259,0a.524.524,0,0,0,.545-.55c0-.715.014-1.431,0-2.146a1.56,1.56,0,0,0-1.431-1.578,8.787,8.787,0,0,0-1,0,1.657,1.657,0,0,0,1.355-1.7,1.613,1.613,0,0,0-3.179-.27,1.653,1.653,0,0,0,1.218,1.957c-.237,0-.469,0-.706,0a1.6,1.6,0,0,0-1.62,1.62c-.009.706,0,1.407,0,2.113A.537.537,0,0,0,113.549,53.316Zm1.578-5.884a.539.539,0,0,1,.531-.545.534.534,0,1,1,0,1.066A.535.535,0,0,1,115.127,47.432Zm-1.066,3.217a.536.536,0,0,1,.569-.564c.7,0,1.393,0,2.094,0a.531.531,0,0,1,.569.564c0,.493,0,.981,0,1.473,0,.114-.038.133-.137.133-.5,0-.995,0-1.488,0s-.981,0-1.473,0c-.109,0-.137-.024-.137-.133C114.065,51.629,114.056,51.137,114.061,50.649Z" transform="translate(-107.536 -43.655)" fill="#24b1e3"/><path d="M90.487,227.466h4.24a.57.57,0,0,0,.436-.161.5.5,0,0,0,.114-.573.521.521,0,0,0-.516-.332H90.5a.534.534,0,1,0-.014,1.066Z" transform="translate(-85.564 -215.673)" fill="#24b1e3"/><path d="M90.483,272.324c.715,0,1.431,0,2.146,0h2.127a.534.534,0,1,0,.014-1.066c-.786,0-1.573,0-2.359,0H90.5a.534.534,0,0,0-.521.327A.527.527,0,0,0,90.483,272.324Z" transform="translate(-85.574 -258.404)" fill="#24b1e3"/><path d="M227.025,227.465a.533.533,0,0,0,.014-1.066.533.533,0,0,0-.014,1.066Z" transform="translate(-215.672 -215.672)" fill="#24b1e3"/><path d="M226.925,271.4a.533.533,0,1,0,.009,1.066.533.533,0,0,0-.009-1.066Z" transform="translate(-215.573 -258.541)" fill="#24b1e3"/></g></svg>