<svg xmlns="http://www.w3.org/2000/svg" width="18.184" height="18.212" viewBox="0 0 18.184 18.212"><g transform="translate(0.027 0.04)"><path d="M221.89,128.414a4.022,4.022,0,0,0-7.964.512,4.5,4.5,0,0,0,.422,1.959,30.064,30.064,0,0,0,3.083,5.427.61.61,0,0,0,1.025,0c.19-.261.365-.531.541-.806a28.6,28.6,0,0,0,2.486-4.492,4.852,4.852,0,0,0,.474-1.907A3.021,3.021,0,0,0,221.89,128.414Zm-1.475,1.864a25.576,25.576,0,0,1-2.135,3.989c-.1.166-.213.332-.342.541-.313-.512-.617-.987-.906-1.475a19.888,19.888,0,0,1-1.655-3.3,2.511,2.511,0,0,1,.617-2.789,2.582,2.582,0,0,1,2.841-.664,2.657,2.657,0,0,1,1.58,3.7Z" transform="translate(-203.801 -119.26)" fill="#24b1e3"/><path d="M8,3.922a3.311,3.311,0,0,0-.057-.65A4.017,4.017,0,0,0,.581,1.854,3.818,3.818,0,0,0,.306,5.493a30.029,30.029,0,0,0,3.178,5.645.61.61,0,0,0,1,0c.142-.185.266-.379.389-.574A30.231,30.231,0,0,0,7.488,5.919,5.06,5.06,0,0,0,8,3.922ZM6.321,5.436a30.012,30.012,0,0,1-2.3,4.127c0,.009-.019.014-.052.033A29.819,29.819,0,0,1,1.5,5.08a2.631,2.631,0,0,1,.285-2.732A2.745,2.745,0,0,1,6.733,3.941,3.8,3.8,0,0,1,6.321,5.436Z" transform="translate(0 0)" fill="#24b1e3"/><path d="M71.158,250.819a.633.633,0,0,0,1.267,0c0-.166.009-.332,0-.5a.633.633,0,0,0-1.233-.147,1.422,1.422,0,0,0-.033.389C71.158,250.672,71.153,250.748,71.158,250.819Z" transform="translate(-67.806 -237.931)" fill="#24b1e3"/><path d="M71.86,339.121a.633.633,0,0,0-.674.441,1.226,1.226,0,0,0-.028.361c0,.119,0,.2,0,.289a.643.643,0,0,0,.621.6.636.636,0,0,0,.64-.579,4.043,4.043,0,0,0,0-.536A.628.628,0,0,0,71.86,339.121Z" transform="translate(-67.806 -323.07)" fill="#24b1e3"/><path d="M197.3,356.749a1.781,1.781,0,0,0-.726,0,.625.625,0,0,0-.479.607.636.636,0,0,0,.47.617,2.448,2.448,0,0,0,.375.028v-.009c.085,0,.171,0,.256,0a.639.639,0,0,0,.593-.564A.63.63,0,0,0,197.3,356.749Z" transform="translate(-186.822 -339.83)" fill="#24b1e3"/><path d="M108.135,356.828a1.978,1.978,0,0,0-.669,0,.609.609,0,0,0-.5.522.627.627,0,0,0,.337.659.88.88,0,0,0,.446.066c.138,0,.213,0,.294,0a.626.626,0,0,0,.6-.574A.616.616,0,0,0,108.135,356.828Z" transform="translate(-101.914 -339.913)" fill="#24b1e3"/><path d="M152.619,356.721a1.87,1.87,0,0,0-.65.009.625.625,0,0,0-.5.527.643.643,0,0,0,.327.645.869.869,0,0,0,.455.076c.123,0,.2,0,.285,0a.632.632,0,0,0,.081-1.257Z" transform="translate(-144.306 -339.816)" fill="#24b1e3"/><path d="M241.937,356.757a1.863,1.863,0,0,0-.688,0,.615.615,0,0,0-.489.508.627.627,0,0,0,.327.664,1.017,1.017,0,0,0,.5.071c.085,0,.171,0,.256,0a.622.622,0,0,0,.588-.564A.609.609,0,0,0,241.937,356.757Z" transform="translate(-229.359 -339.842)" fill="#24b1e3"/><path d="M71.137,295.682a.635.635,0,0,0,1.243.152,1.453,1.453,0,0,0,.028-.37v-.242a.633.633,0,0,0-1.267,0C71.133,295.378,71.133,295.53,71.137,295.682Z" transform="translate(-67.786 -280.664)" fill="#24b1e3"/><path d="M260.5,169.6a1.9,1.9,0,1,0,1.912,1.9A1.912,1.912,0,0,0,260.5,169.6Zm0,2.538a.633.633,0,0,1-.631-.626.636.636,0,1,1,.631.626Z" transform="translate(-246.359 -161.592)" fill="#24b1e3"/><path d="M46.3,44.7a1.9,1.9,0,1,0,1.912,1.9A1.915,1.915,0,0,0,46.3,44.7Zm.009,2.538a.636.636,0,1,1,.636-.645A.638.638,0,0,1,46.307,47.238Z" transform="translate(-42.32 -42.618)" fill="#24b1e3"/></g></svg>