<svg xmlns="http://www.w3.org/2000/svg" width="18.184" height="18.178" viewBox="0 0 18.184 18.178"><g transform="translate(-0.1 -0.1)"><path d="M18.278,17.568a3.027,3.027,0,0,1-.095-.616,9,9,0,0,0-5.835-7.2l-.166-.066c.052-.043.085-.071.123-.1a5.067,5.067,0,0,0,2.013-5.31A5.066,5.066,0,0,0,10.388.242C10.16.181,9.923.147,9.691.1H8.663a4.319,4.319,0,0,1-.644.133,5.243,5.243,0,0,0-4.054,4.59,5.153,5.153,0,0,0,2.117,4.76c.038.028.071.057.118.1a9.131,9.131,0,0,0-1,.426,9.033,9.033,0,0,0-4.983,6.7,4.559,4.559,0,0,1-.114.72c0,.218,0,.436,0,.658,0,.076.014.09.09.09.445,0,.886,0,1.331,0A7.551,7.551,0,0,1,5.826,11.4a6.962,6.962,0,0,1,3.95-.758,7.529,7.529,0,0,1,6.442,4.575,7.159,7.159,0,0,1,.644,3.06c.445,0,.886,0,1.331,0,.076,0,.095-.014.09-.09C18.274,17.98,18.278,17.772,18.278,17.568ZM9.184,9.185a3.834,3.834,0,1,1,3.837-3.832A3.841,3.841,0,0,1,9.184,9.185Z" fill="#24b1e3"/></g></svg>